<?xml version="1.0" standalone="no"?>
<!DOCTYPE svg PUBLIC "-//W3C//DTD SVG 20010904//EN"
 "http://www.w3.org/TR/2001/REC-SVG-20010904/DTD/svg10.dtd">
<svg version="1.0" xmlns="http://www.w3.org/2000/svg"
 width="16.000000pt" height="16.000000pt" viewBox="0 0 16.000000 16.000000"
 preserveAspectRatio="xMidYMid meet">
<metadata>
Created by potrace 1.11, written by Peter Selinger 2001-2013
</metadata>
<g transform="translate(0.000000,16.000000) scale(0.001728,-0.001728)"
fill="#000000" stroke="none">
<path d="M398 9253 c-1 -5 -23 -18 -48 -30 -80 -40 -157 -97 -205 -153 -45
-52 -125 -203 -125 -234 0 -8 -4 -18 -10 -21 -14 -9 -14 -8361 0 -8370 5 -3
10 -13 10 -21 0 -31 80 -182 125 -234 48 -56 125 -113 205 -153 25 -12 46 -25
48 -29 5 -10 8459 -10 8464 0 2 4 23 17 48 29 80 40 157 97 205 153 45 52 125
203 125 234 0 8 5 18 10 21 14 9 14 8361 0 8370 -5 3 -10 13 -10 21 0 31 -80
182 -125 234 -48 56 -125 113 -205 153 -25 12 -46 25 -48 30 -2 4 -1906 7
-4232 7 -2326 0 -4230 -3 -4232 -7z m6962 -1328 c0 -3 -106 -213 -235 -467
-407 -805 -964 -1972 -1350 -2833 -57 -126 -120 -266 -140 -310 -257 -559
-958 -2195 -1263 -2948 l-15 -37 -275 2 -276 3 -226 390 c-124 215 -316 545
-426 735 -965 1661 -1244 2145 -1244 2160 0 7 189 10 598 10 l599 0 113 -202
c517 -925 744 -1318 753 -1309 9 9 92 186 327 696 134 292 276 598 630 1360
233 500 467 1005 615 1325 68 146 198 427 290 625 92 198 213 460 268 582
l102 222 578 1 c317 0 577 -2 577 -5z"/>
</g>
</svg>
