<?xml version="1.0" standalone="no"?>
<!DOCTYPE svg PUBLIC "-//W3C//DTD SVG 20010904//EN"
 "http://www.w3.org/TR/2001/REC-SVG-20010904/DTD/svg10.dtd">
<svg version="1.0" xmlns="http://www.w3.org/2000/svg"
 width="16.000000pt" height="16.000000pt" viewBox="0 0 16.000000 16.000000"
 preserveAspectRatio="xMidYMid meet">
<metadata>
Created by potrace 1.11, written by Peter Selinger 2001-2013
</metadata>
<g transform="translate(0.000000,16.000000) scale(0.001728,-0.001728)"
fill="#000000" stroke="none">
<path d="M354 9232 c-95 -50 -169 -104 -204 -148 -19 -24 -41 -50 -48 -58 -17
-20 -82 -163 -82 -180 0 -8 -5 -18 -10 -21 -14 -9 -14 -8381 0 -8390 6 -3 10
-13 10 -21 0 -17 65 -160 82 -180 7 -8 29 -34 48 -58 38 -47 99 -91 198 -143
l63 -33 4219 0 4219 0 63 33 c99 52 160 96 198 143 19 24 41 50 48 58 17 20
82 163 82 180 0 8 5 18 10 21 14 9 14 8381 0 8390 -5 3 -10 13 -10 21 0 17
-65 160 -82 180 -7 8 -29 34 -48 58 -38 47 -99 91 -198 143 l-63 33 -4222 -1
-4222 -1 -51 -26z m7004 -1311 c-1 -4 -106 -212 -233 -462 -793 -1568 -1699
-3548 -2461 -5379 -35 -85 -119 -288 -187 -450 l-122 -295 -274 0 -273 0 -221
380 c-349 603 -632 1089 -792 1365 -148 255 -605 1045 -788 1363 -54 92 -97
170 -97 172 0 3 270 4 601 3 l600 -3 113 -200 c62 -110 206 -366 321 -570 343
-608 423 -746 428 -738 7 12 175 374 445 958 132 286 320 691 417 900 97 209
246 529 330 710 84 182 228 492 320 690 163 350 375 809 568 1225 52 113 108
235 125 273 l31 67 576 0 c317 0 575 -4 573 -9z"/>
</g>
</svg>
